<?xml version="1.0" encoding="UTF-8" standalone="no"?>
<!-- Generator: Adobe Illustrator 17.1.0, SVG Export Plug-In . SVG Version: 6.00 Build 0)  -->

<svg
   xmlns:dc="http://purl.org/dc/elements/1.1/"
   xmlns:cc="http://creativecommons.org/ns#"
   xmlns:rdf="http://www.w3.org/1999/02/22-rdf-syntax-ns#"
   xmlns:svg="http://www.w3.org/2000/svg"
   xmlns="http://www.w3.org/2000/svg"
   xmlns:xlink="http://www.w3.org/1999/xlink"
   xmlns:sodipodi="http://sodipodi.sourceforge.net/DTD/sodipodi-0.dtd"
   xmlns:inkscape="http://www.inkscape.org/namespaces/inkscape"
   version="1.1"
   id="Layer_1"
   x="0px"
   y="0px"
   viewBox="0 0 304 304"
   enable-background="new 0 0 432.9 350.6"
   xml:space="preserve"
   inkscape:version="0.48.2 r9819"
   width="100%"
   height="100%"
   sodipodi:docname="Association_Hosting_Supporter.svg"><metadata
   id="metadata116"><rdf:RDF><cc:Work
       rdf:about=""><dc:format>image/svg+xml</dc:format><dc:type
         rdf:resource="http://purl.org/dc/dcmitype/StillImage" /><dc:title></dc:title></cc:Work></rdf:RDF></metadata><defs
   id="defs114"><linearGradient
     inkscape:collect="always"
     xlink:href="#SVGID_1_"
     id="linearGradient3203"
     gradientUnits="userSpaceOnUse"
     x1="50.645599"
     y1="174.1685"
     x2="381.59479"
     y2="174.1685" /></defs><sodipodi:namedview
   pagecolor="#ffffff"
   bordercolor="#666666"
   borderopacity="1"
   objecttolerance="10"
   gridtolerance="10"
   guidetolerance="10"
   inkscape:pageopacity="0"
   inkscape:pageshadow="2"
   inkscape:window-width="1072"
   inkscape:window-height="607"
   id="namedview112"
   showgrid="false"
   inkscape:zoom="0.95195208"
   inkscape:cx="293.16196"
   inkscape:cy="188.35361"
   inkscape:window-x="0"
   inkscape:window-y="0"
   inkscape:window-maximized="0"
   inkscape:current-layer="Layer_1" />











<g
   id="g3145"
   transform="matrix(0.7071412,0,0,0.7071412,-0.77742532,58.92767)"><g
     transform="translate(0,-46.6)"
     id="g3">
	<linearGradient
   y2="174.1685"
   x2="381.59479"
   y1="174.1685"
   x1="50.645599"
   gradientUnits="userSpaceOnUse"
   id="SVGID_1_">
		<stop
   id="stop6"
   style="stop-color:#2EA8E0"
   offset="0" />
		<stop
   id="stop8"
   style="stop-color:#2EA8E0"
   offset="0.5194" />
		<stop
   id="stop10"
   style="stop-color:#2EA8E0"
   offset="1" />
	</linearGradient>
	<path
   style="fill:url(#linearGradient3203)"
   inkscape:connector-curvature="0"
   id="path12"
   d="m 381.6,174.2 c 0,91.4 -74.1,165.5 -165.5,165.5 -91.4,0 -165.5,-74.1 -165.5,-165.5 0,-91.4 74.1,-165.5 165.5,-165.5 91.4,0 165.5,74.1 165.5,165.5 z" />
</g><path
     style="fill:none"
     inkscape:connector-curvature="0"
     id="path74"
     d="m 40.3,192.1 c 0,0 72.8,33.6 175.6,33.6 102.8,0 175.6,-33.6 175.6,-33.6 v 85.5 c 0,0 -71.5,33.6 -175.6,33.6 -104.1,0 -175.6,-33.6 -175.6,-33.6 v -85.5 z" /><g
     id="g3095"><g
       id="g14"
       transform="translate(0,-46.6)">
	<path
   d="m 216.1,283.6 c -60.3,0 -109.4,-49.1 -109.4,-109.4 0,-60.3 49.1,-109.4 109.4,-109.4 29.2,0 56.7,11.4 77.4,32 20.7,20.7 32,48.1 32,77.4 0,60.3 -49,109.4 -109.4,109.4 z"
   id="path16"
   inkscape:connector-curvature="0"
   style="fill:#96bc43" />
	<g
   id="g18">
		<path
   d="m 216.1,68.7 c 58.2,0 105.5,47.3 105.5,105.5 0,58.2 -47.3,105.5 -105.5,105.5 -28.2,0 -54.7,-11 -74.6,-30.9 C 121.6,228.9 110.6,202.4 110.6,174.2 110.7,116 158,68.7 216.1,68.7 l 0,0 m 0,-7.9 c -62.6,0 -113.4,50.8 -113.4,113.4 0,62.6 50.8,113.4 113.4,113.4 62.6,0 113.4,-50.8 113.4,-113.4 0,-62.6 -50.8,-113.4 -113.4,-113.4 l 0,0 z"
   id="path20"
   inkscape:connector-curvature="0"
   style="fill:#ffffff" />
	</g>
</g><path
       d="m 216.1,190 c -32.7,0 -59.3,-26.6 -59.3,-59.3 0,-27.8 18.6,-46.3 34.9,-62.7 10.9,-10.9 21.3,-21.3 24.4,-33 3.1,11.7 13.5,22.1 24.4,33 16.4,16.4 34.9,34.9 34.9,62.7 0.1,32.7 -26.6,59.3 -59.3,59.3"
       id="path22"
       inkscape:connector-curvature="0"
       style="fill:#ffffff" /><path
       d="M 83.5,134 C 83.5,60.8 142.9,1.4 216.1,1.4 289.3,1.4 348.7,60.8 348.7,134"
       id="path24"
       inkscape:connector-curvature="0"
       style="fill:none" /><text
       transform="matrix(0.5592152,-0.82902253,0.82902253,0.5592152,0,0)"
       id="text26"
       x="-3.170784"
       y="121.4941"
       style="font-size:11.99967384px"><tspan
         x="-3.170784"
         y="121.4941"
         font-size="34.5786"
         id="tspan28"
         style="font-size:34.57766342px;fill:#ffffff;font-family:HelveticaNeue-Bold">D</tspan><tspan
         x="21.628542"
         y="121.8941"
         font-size="34.5786"
         rotate="8.1000004"
         id="tspan30"
         style="font-size:34.57766342px;fill:#ffffff;font-family:HelveticaNeue-Bold">r</tspan><tspan
         x="34.328197"
         y="123.39405"
         font-size="34.5786"
         rotate="15"
         id="tspan32"
         style="font-size:34.57766342px;fill:#ffffff;font-family:HelveticaNeue-Bold">u</tspan><tspan
         x="53.227684"
         y="128.39391"
         font-size="34.5786"
         rotate="23.6"
         id="tspan34"
         style="font-size:34.57766342px;fill:#ffffff;font-family:HelveticaNeue-Bold">p</tspan><tspan
         x="71.827179"
         y="136.4937"
         font-size="34.5786"
         rotate="32.099998"
         id="tspan36"
         style="font-size:34.57766342px;fill:#ffffff;font-family:HelveticaNeue-Bold">a</tspan><tspan
         x="88.026733"
         y="146.8934"
         font-size="34.5786"
         rotate="38.099998"
         id="tspan38"
         style="font-size:34.57766342px;fill:#ffffff;font-family:HelveticaNeue-Bold">l</tspan><tspan
         x="94.726555"
         y="152.19327"
         font-size="34.5786"
         rotate="41.900002"
         id="tspan40"
         style="font-size:34.57766342px;fill:#ffffff;font-family:HelveticaNeue-Bold"> </tspan><tspan
         x="101.72636"
         y="157.79311"
         font-size="34.5786"
         rotate="48.799999"
         id="tspan42"
         style="font-size:34.57766342px;fill:#ffffff;font-family:HelveticaNeue-Bold">A</tspan><tspan
         x="116.62596"
         y="175.09264"
         font-size="34.5786"
         rotate="57.5"
         id="tspan44"
         style="font-size:34.57766342px;fill:#ffffff;font-family:HelveticaNeue-Bold">s</tspan><tspan
         x="126.22569"
         y="189.99223"
         font-size="34.5786"
         rotate="65.099998"
         id="tspan46"
         style="font-size:34.57766342px;fill:#ffffff;font-family:HelveticaNeue-Bold">s</tspan><tspan
         x="133.8255"
         y="206.0918"
         font-size="34.5786"
         rotate="73.400002"
         id="tspan48"
         style="font-size:34.57766342px;fill:#ffffff;font-family:HelveticaNeue-Bold">o</tspan><tspan
         x="139.62534"
         y="225.49127"
         font-size="34.5786"
         rotate="81.900002"
         id="tspan50"
         style="font-size:34.57766342px;fill:#ffffff;font-family:HelveticaNeue-Bold">c</tspan><tspan
         x="142.12527"
         y="244.59074"
         font-size="34.5786"
         rotate="87.900002"
         id="tspan52"
         style="font-size:34.57766342px;fill:#ffffff;font-family:HelveticaNeue-Bold">i</tspan><tspan
         x="142.72525"
         y="252.89052"
         font-size="34.5786"
         rotate="93.800003"
         id="tspan54"
         style="font-size:34.57766342px;fill:#ffffff;font-family:HelveticaNeue-Bold">a</tspan><tspan
         x="141.32529"
         y="271.99002"
         font-size="34.5786"
         rotate="100.4"
         id="tspan56"
         style="font-size:34.57766342px;fill:#ffffff;font-family:HelveticaNeue-Bold">t</tspan><tspan
         x="139.12535"
         y="283.48972"
         font-size="34.5786"
         rotate="104.7"
         id="tspan58"
         style="font-size:34.57766342px;fill:#ffffff;font-family:HelveticaNeue-Bold">i</tspan><tspan
         x="137.4254"
         y="291.58951"
         font-size="34.5786"
         rotate="110.9"
         id="tspan60"
         style="font-size:34.57766342px;fill:#ffffff;font-family:HelveticaNeue-Bold">o</tspan><tspan
         x="130.22559"
         y="310.58899"
         font-size="34.5786"
         rotate="119.5"
         id="tspan62"
         style="font-size:34.57766342px;fill:#ffffff;font-family:HelveticaNeue-Bold">n</tspan></text>
<polygon
       points="431.1,215.7 344.2,215.7 344.2,257.9 344.2,300.2 431.1,300.2 401.1,257.9 "
       id="polygon64"
       style="fill:#984d8a"
       transform="translate(0,-46.6)" /><polygon
       points="344.2,237.9 344.2,300.2 391.1,270.2 391.1,195.7 344.2,205.7 "
       id="polygon66"
       style="fill:#7b3b6f"
       transform="translate(0,-46.6)" /><polygon
       points="1.2,215.7 88,215.7 88,257.9 88,300.2 1.2,300.2 31.2,257.9 "
       id="polygon68"
       style="fill:#984d8a"
       transform="translate(0,-46.6)" /><polygon
       points="41.2,270.2 41.2,195.7 88,205.7 88,300.2 "
       id="polygon70"
       style="fill:#7b3b6f"
       transform="translate(0,-46.6)" /><path
       d="m 40.5,139.1 c 0,0 72.8,33.6 175.6,33.6 102.8,0 175.6,-33.6 175.6,-33.6 v 85.5 c 0,0 -71.5,33.6 -175.6,33.6 C 112,258.2 40.5,224.6 40.5,224.6 v -85.5 z"
       id="path72"
       inkscape:connector-curvature="0"
       style="fill:#b65ea4" /><text
       transform="matrix(0.96352794,0.26760776,-0.26760776,0.96352794,0,0)"
       id="text76"
       x="127.28111"
       y="177.27289"
       style="font-size:11.99965191px"><tspan
         x="127.28111"
         y="177.27289"
         font-size="32"
         id="tspan78"
         style="font-size:31.99907303px;fill:#ffffff;font-family:HelveticaNeue-Bold">H</tspan><tspan
         x="151.6804"
         y="177.1729"
         font-size="32"
         rotate="-2.7"
         id="tspan80"
         style="font-size:31.99907303px;fill:#ffffff;font-family:HelveticaNeue-Bold">o</tspan><tspan
         x="171.67982"
         y="176.27292"
         font-size="32"
         rotate="-4.9000001"
         id="tspan82"
         style="font-size:31.99907303px;fill:#ffffff;font-family:HelveticaNeue-Bold">s</tspan><tspan
         x="189.17932"
         y="174.67297"
         font-size="32"
         rotate="-6.5999999"
         id="tspan84"
         style="font-size:31.99907303px;fill:#ffffff;font-family:HelveticaNeue-Bold">t</tspan><tspan
         x="200.67899"
         y="173.27301"
         font-size="32"
         rotate="-7.8000002"
         id="tspan86"
         style="font-size:31.99907303px;fill:#ffffff;font-family:HelveticaNeue-Bold">i</tspan><tspan
         x="209.27873"
         y="172.17303"
         font-size="32"
         rotate="-9.3999996"
         id="tspan88"
         style="font-size:31.99907303px;fill:#ffffff;font-family:HelveticaNeue-Bold">n</tspan><tspan
         x="228.47816"
         y="168.97313"
         font-size="32"
         rotate="-11.8"
         id="tspan90"
         style="font-size:31.99907303px;fill:#ffffff;font-family:HelveticaNeue-Bold">g</tspan><tspan
         x="248.07761"
         y="164.87325"
         font-size="32"
         rotate="-13.5"
         id="tspan92"
         style="font-size:31.99907303px;fill:#ffffff;font-family:HelveticaNeue-Bold"> </tspan><tspan
         x="257.07736"
         y="162.77332"
         font-size="32"
         rotate="-15.1"
         id="tspan94"
         style="font-size:31.99907303px;fill:#ffffff;font-family:HelveticaNeue-Bold">S</tspan><tspan
         x="277.67673"
         y="157.07347"
         font-size="32"
         rotate="-17.799999"
         id="tspan96"
         style="font-size:31.99907303px;fill:#ffffff;font-family:HelveticaNeue-Bold">u</tspan><tspan
         x="296.27621"
         y="151.07365"
         font-size="32"
         rotate="-20.200001"
         id="tspan98"
         style="font-size:31.99907303px;fill:#ffffff;font-family:HelveticaNeue-Bold">p</tspan><tspan
         x="315.17566"
         y="144.17386"
         font-size="32"
         rotate="-22.5"
         id="tspan100"
         style="font-size:31.99907303px;fill:#ffffff;font-family:HelveticaNeue-Bold">p</tspan><tspan
         x="333.67511"
         y="136.47408"
         font-size="32"
         rotate="-24.9"
         id="tspan102"
         style="font-size:31.99907303px;fill:#ffffff;font-family:HelveticaNeue-Bold">o</tspan><tspan
         x="351.7746"
         y="127.97433"
         font-size="32"
         rotate="-26.799999"
         id="tspan104"
         style="font-size:31.99907303px;fill:#ffffff;font-family:HelveticaNeue-Bold">r</tspan><tspan
         x="363.27426"
         y="122.17449"
         font-size="32"
         rotate="-28.200001"
         id="tspan106"
         style="font-size:31.99907303px;fill:#ffffff;font-family:HelveticaNeue-Bold">t</tspan><tspan
         x="373.57397"
         y="116.67466"
         font-size="32"
         rotate="-30.1"
         id="tspan108"
         style="font-size:31.99907303px;fill:#ffffff;font-family:HelveticaNeue-Bold">e</tspan><tspan
         x="389.8735"
         y="107.17493"
         font-size="32"
         rotate="-32.099998"
         id="tspan110"
         style="font-size:31.99907303px;fill:#ffffff;font-family:HelveticaNeue-Bold">r</tspan></text>
</g></g>
</svg>