<?xml version="1.0" encoding="UTF-8" standalone="no"?>
<!-- Created with Inkscape (http://www.inkscape.org/) -->

<svg
   xmlns:dc="http://purl.org/dc/elements/1.1/"
   xmlns:cc="http://creativecommons.org/ns#"
   xmlns:rdf="http://www.w3.org/1999/02/22-rdf-syntax-ns#"
   xmlns:svg="http://www.w3.org/2000/svg"
   xmlns="http://www.w3.org/2000/svg"
   xmlns:xlink="http://www.w3.org/1999/xlink"
   xmlns:sodipodi="http://sodipodi.sourceforge.net/DTD/sodipodi-0.dtd"
   xmlns:inkscape="http://www.inkscape.org/namespaces/inkscape"
   version="1.1"
   width="100%"
   height="100%"
   viewBox="0 0 304 304"
   id="Layer_1"
   xml:space="preserve"
   inkscape:version="0.48.2 r9819"
   sodipodi:docname="Drupal_Association_premium_host_support_304.svg"><sodipodi:namedview
   pagecolor="#ffffff"
   bordercolor="#666666"
   borderopacity="1"
   objecttolerance="10"
   gridtolerance="10"
   guidetolerance="10"
   inkscape:pageopacity="0"
   inkscape:pageshadow="2"
   inkscape:window-width="640"
   inkscape:window-height="480"
   id="namedview141"
   showgrid="false"
   inkscape:zoom="0.77631579"
   inkscape:cx="152"
   inkscape:cy="152"
   inkscape:window-x="0"
   inkscape:window-y="0"
   inkscape:window-maximized="0"
   inkscape:current-layer="Layer_1" /><metadata
   id="metadata274"><rdf:RDF><cc:Work
       rdf:about=""><dc:format>image/svg+xml</dc:format><dc:type
         rdf:resource="http://purl.org/dc/dcmitype/StillImage" /><dc:title /></cc:Work></rdf:RDF></metadata><defs
   id="defs272"><linearGradient
     x1="51.6455"
     y1="169.1685"
     x2="382.5947"
     y2="169.1685"
     id="linearGradient3387"
     xlink:href="#SVGID_1_"
     gradientUnits="userSpaceOnUse" /></defs>















<g
   transform="matrix(0.7022407,0,0,0.7022407,0.6290435,65.145968)"
   id="g3251"><g
   transform="translate(0,-46.6)"
   id="g3">
	<linearGradient
   x1="51.6455"
   y1="169.1685"
   x2="382.5947"
   y2="169.1685"
   id="SVGID_1_"
   gradientUnits="userSpaceOnUse">
		<stop
   id="stop6"
   style="stop-color:#2ea8e0;stop-opacity:1"
   offset="0" />
		<stop
   id="stop8"
   style="stop-color:#2ea8e0;stop-opacity:1"
   offset="0.5194" />
		<stop
   id="stop10"
   style="stop-color:#2ea8e0;stop-opacity:1"
   offset="1" />
	</linearGradient>
	<path
   d="m 382.6,169.2 c 0,91.4 -74.1,165.5 -165.5,165.5 -91.4,0 -165.5,-74.1 -165.5,-165.5 0,-91.4 74.1,-165.5 165.5,-165.5 91.4,0 165.5,74.1 165.5,165.5 z"
   id="path12"
   style="fill:url(#linearGradient3387)"
   inkscape:connector-curvature="0" />
</g><g
   transform="translate(0,-46.6)"
   id="g14">
	<path
   d="m 217.1,278.6 c -60.3,0 -109.4,-49.1 -109.4,-109.4 0,-60.3 49.1,-109.4 109.4,-109.4 29.2,0 56.7,11.4 77.4,32 20.7,20.7 32,48.1 32,77.4 0,60.3 -49,109.4 -109.4,109.4 z"
   id="path16"
   style="fill:#96bc43"
   inkscape:connector-curvature="0" />
	<g
   id="g18">
		<path
   d="m 217.1,63.7 c 58.2,0 105.5,47.3 105.5,105.5 0,58.2 -47.3,105.5 -105.5,105.5 -28.2,0 -54.7,-11 -74.6,-30.9 C 122.6,223.9 111.6,197.4 111.6,169.2 111.7,111 159,63.7 217.1,63.7 l 0,0 m 0,-7.9 c -62.6,0 -113.4,50.8 -113.4,113.4 0,62.6 50.8,113.4 113.4,113.4 62.6,0 113.4,-50.8 113.4,-113.4 0,-62.6 -50.8,-113.4 -113.4,-113.4 l 0,0 z"
   id="path20"
   style="fill:#ffffff"
   inkscape:connector-curvature="0" />
	</g>
</g><path
   d="m 217.1,185 c -32.7,0 -59.3,-26.6 -59.3,-59.3 0,-27.8 18.6,-46.3 34.9,-62.7 10.9,-10.9 21.3,-21.3 24.4,-33 3.1,11.7 13.5,22.1 24.4,33 16.4,16.4 34.9,34.9 34.9,62.7 0.1,32.7 -26.6,59.3 -59.3,59.3"
   id="path22"
   style="fill:#ffffff"
   inkscape:connector-curvature="0" /><path
   d="m 84.5,129 c 0,-73.2 59.4,-132.6 132.6,-132.6 73.2,0 132.6,59.4 132.6,132.6"
   id="path24"
   style="fill:none"
   inkscape:connector-curvature="0" /><text
   x="1.5335464"
   y="119.52705"
   transform="matrix(0.5592152,-0.82902253,0.82902253,0.5592152,0,0)"
   id="text26"
   style="font-size:11.99967384px"><tspan
     x="1.5335464"
     y="119.52705"
     id="tspan28"
     style="font-size:34.57766342px;fill:#ffffff;font-family:HelveticaNeue-Bold">D</tspan><tspan
     x="26.33287"
     y="119.92704"
     rotate="8.1000004"
     id="tspan30"
     style="font-size:34.57766342px;fill:#ffffff;font-family:HelveticaNeue-Bold">r</tspan><tspan
     x="39.032524"
     y="121.42699"
     rotate="15"
     id="tspan32"
     style="font-size:34.57766342px;fill:#ffffff;font-family:HelveticaNeue-Bold">u</tspan><tspan
     x="57.932014"
     y="126.42687"
     rotate="23.6"
     id="tspan34"
     style="font-size:34.57766342px;fill:#ffffff;font-family:HelveticaNeue-Bold">p</tspan><tspan
     x="76.531502"
     y="134.52664"
     rotate="32.099998"
     id="tspan36"
     style="font-size:34.57766342px;fill:#ffffff;font-family:HelveticaNeue-Bold">a</tspan><tspan
     x="92.731064"
     y="144.92636"
     rotate="38.099998"
     id="tspan38"
     style="font-size:34.57766342px;fill:#ffffff;font-family:HelveticaNeue-Bold">l</tspan><tspan
     x="99.430885"
     y="150.22621"
     rotate="41.900002"
     id="tspan40"
     style="font-size:34.57766342px;fill:#ffffff;font-family:HelveticaNeue-Bold"> </tspan><tspan
     x="106.43069"
     y="155.82607"
     rotate="48.799999"
     id="tspan42"
     style="font-size:34.57766342px;fill:#ffffff;font-family:HelveticaNeue-Bold">A</tspan><tspan
     x="121.33029"
     y="173.1256"
     rotate="57.5"
     id="tspan44"
     style="font-size:34.57766342px;fill:#ffffff;font-family:HelveticaNeue-Bold">s</tspan><tspan
     x="130.93002"
     y="188.02518"
     rotate="65.099998"
     id="tspan46"
     style="font-size:34.57766342px;fill:#ffffff;font-family:HelveticaNeue-Bold">s</tspan><tspan
     x="138.52982"
     y="204.12474"
     rotate="73.400002"
     id="tspan48"
     style="font-size:34.57766342px;fill:#ffffff;font-family:HelveticaNeue-Bold">o</tspan><tspan
     x="144.32967"
     y="223.52422"
     rotate="81.900002"
     id="tspan50"
     style="font-size:34.57766342px;fill:#ffffff;font-family:HelveticaNeue-Bold">c</tspan><tspan
     x="146.82961"
     y="242.6237"
     rotate="87.900002"
     id="tspan52"
     style="font-size:34.57766342px;fill:#ffffff;font-family:HelveticaNeue-Bold">i</tspan><tspan
     x="147.42958"
     y="250.92348"
     rotate="93.800003"
     id="tspan54"
     style="font-size:34.57766342px;fill:#ffffff;font-family:HelveticaNeue-Bold">a</tspan><tspan
     x="146.02962"
     y="270.02298"
     rotate="100.4"
     id="tspan56"
     style="font-size:34.57766342px;fill:#ffffff;font-family:HelveticaNeue-Bold">t</tspan><tspan
     x="143.82968"
     y="281.52264"
     rotate="104.7"
     id="tspan58"
     style="font-size:34.57766342px;fill:#ffffff;font-family:HelveticaNeue-Bold">i</tspan><tspan
     x="142.12973"
     y="289.62244"
     rotate="110.9"
     id="tspan60"
     style="font-size:34.57766342px;fill:#ffffff;font-family:HelveticaNeue-Bold">o</tspan><tspan
     x="134.92992"
     y="308.62192"
     rotate="119.5"
     id="tspan62"
     style="font-size:34.57766342px;fill:#ffffff;font-family:HelveticaNeue-Bold">n</tspan></text>

<g
   transform="translate(0,-46.6)"
   id="g64">
	<path
   d="m 348.9,19.9 c 0,0 0.6,0.6 1.7,1.8 1.1,1.2 2.8,2.9 4.9,5.3 4.2,4.8 10.2,12 16.7,22 6.5,10 13.4,22.8 19.1,38.4 2.8,7.8 5.2,16.3 7.1,25.5 1.8,9.1 3,18.9 3.5,29.1 0.1,2.6 0.2,5.1 0.2,7.8 0,2.6 -0.1,5.2 -0.1,7.8 -0.3,5.3 -0.6,10.8 -1.4,16.2 -1.4,10.9 -3.8,22.1 -7.4,33.3 -7.2,22.3 -19.1,44.6 -35.9,64.1 -8.4,9.8 -17.9,18.8 -28.4,26.9 -10.5,8 -22.1,15 -34.4,20.7 -12.3,5.7 -25.3,10 -38.7,12.9 -13.4,2.9 -27.1,4.2 -41,4.1 -27.4,-0.4 -54.9,-7 -79,-19.1 -24.2,-12.1 -45.1,-29.4 -61.2,-49.2 -8.1,-9.9 -15,-20.5 -20.7,-31.4 -0.7,-1.4 -1.4,-2.7 -2.1,-4.1 -0.7,-1.4 -1.4,-2.7 -2,-4.1 -0.6,-1.4 -1.2,-2.8 -1.8,-4.2 -0.6,-1.4 -1.2,-2.7 -1.8,-4.2 -1,-2.8 -2.3,-5.5 -3.2,-8.4 -0.9,-2.8 -2,-5.6 -2.8,-8.4 -3.5,-11.2 -5.9,-22.3 -7.2,-33.3 -0.2,-1.4 -0.3,-2.7 -0.4,-4.1 -0.1,-1.4 -0.2,-2.7 -0.3,-4.1 -0.3,-2.7 -0.3,-5.4 -0.4,-8 0,-1.3 -0.1,-2.7 -0.1,-4 0,-1.4 0.1,-2.6 0.1,-3.9 0,-1.3 0.1,-2.6 0.1,-3.9 l 0,-1.9 c 0,-0.6 0.1,-1.3 0.1,-1.9 1.2,-20.5 5.8,-38.9 11.7,-54.5 6,-15.5 13.1,-28.3 19.8,-38.1 6.8,-9.9 13,-16.9 17.3,-21.7 2.2,-2.3 3.9,-4 5.1,-5.2 1.2,-1.2 1.8,-1.8 1.8,-1.8 l 2.5,2.6 c 0,0 -0.6,0.6 -1.7,1.8 -1.1,1.2 -2.8,2.9 -5,5.2 -4.2,4.7 -10.3,11.6 -16.8,21.3 -6.6,9.7 -13.6,22.1 -19.5,37.3 -0.8,1.9 -1.4,3.9 -2.1,5.8 -0.7,2 -1.4,4 -2,6.1 -0.6,2.1 -1.2,4.2 -1.8,6.3 -0.5,2.2 -1,4.4 -1.6,6.6 -0.6,2.2 -1,4.5 -1.4,6.8 -0.4,2.3 -0.9,4.6 -1.2,7 -0.3,2.4 -0.6,4.8 -0.9,7.2 -0.2,2.4 -0.4,4.9 -0.6,7.4 0,0.6 -0.1,1.2 -0.1,1.9 l -0.1,1.9 c 0,1.3 -0.1,2.6 -0.1,3.9 0,1.3 -0.1,2.6 -0.1,3.8 0,1.3 0.1,2.6 0.1,3.9 0.1,2.6 0,5.2 0.3,7.9 0.1,1.3 0.2,2.7 0.3,4 0.1,1.3 0.2,2.7 0.4,4 0.3,2.7 0.6,5.4 1,8.1 0.4,2.7 0.9,5.5 1.4,8.2 0.6,2.7 1.2,5.5 1.8,8.3 0.3,1.4 0.7,2.8 1.1,4.1 0.4,1.4 0.8,2.8 1.2,4.2 0.8,2.8 1.8,5.5 2.7,8.3 0.4,1.4 1,2.7 1.5,4.1 0.5,1.4 1.1,2.7 1.6,4.1 0.5,1.4 1.2,2.7 1.8,4.1 0.6,1.3 1.3,2.7 1.9,4.1 0.6,1.4 1.3,2.7 2,4 0.7,1.3 1.4,2.7 2.1,4 5.8,10.6 12.7,20.9 20.9,30.4 16.3,19.1 37.2,35.2 60.9,46.4 23.7,11.1 50.1,17.2 76.7,17.4 13.2,0.2 26.5,-1 39.4,-3.8 12.9,-2.7 25.5,-6.9 37.4,-12.3 11.9,-5.3 23.2,-11.9 33.5,-19.6 10.3,-7.7 19.7,-16.3 28,-25.6 16.6,-18.7 28.7,-40.1 36,-61.9 3.7,-10.9 6.2,-21.8 7.7,-32.5 0.8,-5.4 1.2,-10.6 1.6,-15.8 0.1,-2.6 0.2,-5.2 0.2,-7.8 0,-2.5 -0.1,-5.1 -0.1,-7.6 -0.4,-10 -1.5,-19.6 -3.2,-28.6 -1.8,-9 -4.1,-17.4 -6.8,-25.1 -5.4,-15.4 -12.2,-28.1 -18.5,-38 -6.4,-9.9 -12.3,-17 -16.4,-21.7 -2.1,-2.4 -3.8,-4.1 -4.9,-5.3 -1.1,-1.2 -1.7,-1.8 -1.7,-1.8 l 1.7,-1.5 z"
   id="path66"
   style="fill:#fcb42a"
   inkscape:connector-curvature="0" />
</g><g
   transform="translate(0,-46.6)"
   id="g68">
	<path
   d="m 259.3,327.4 c 0,0 -2.3,-36.1 30.7,-43.1 0,0.1 -0.1,36.1 -30.7,43.1 z"
   id="path70"
   style="fill:#fcb42a"
   inkscape:connector-curvature="0" />
	<path
   d="m 259.3,327.4 c 0,0 34.4,-11.1 49.3,19.2 -0.1,0 -35,8.8 -49.3,-19.2 z"
   id="path72"
   style="fill:#fcb42a"
   inkscape:connector-curvature="0" />
	<g
   id="g74">
		<path
   d="m 292.8,315.6 c 0,0 -8.7,-35.1 22.6,-47.8 0,0 6.4,35.5 -22.6,47.8 z"
   id="path76"
   style="fill:#fcb42a"
   inkscape:connector-curvature="0" />
		<path
   d="m 292.8,315.6 c 0,0 31.9,-17 51.9,10.2 0,0 -32.8,14.9 -51.9,-10.2 z"
   id="path78"
   style="fill:#fcb42a"
   inkscape:connector-curvature="0" />
	</g>
	<g
   id="g80">
		<path
   d="m 324.3,298.1 c 0,0 -16.1,-32.4 11.7,-51.6 0,0 13.9,33.3 -11.7,51.6 z"
   id="path82"
   style="fill:#fcb42a"
   inkscape:connector-curvature="0" />
		<path
   d="m 324.3,298.1 c 0,0 27.4,-23.6 52.9,-1.4 0,0 -28.8,21.7 -52.9,1.4 z"
   id="path84"
   style="fill:#fcb42a"
   inkscape:connector-curvature="0" />
	</g>
	<g
   id="g86">
		<path
   d="m 350.5,275 c 0,0 -21.2,-29.3 3.1,-52.8 0,0 19.2,30.5 -3.1,52.8 z"
   id="path88"
   style="fill:#fcb42a"
   inkscape:connector-curvature="0" />
		<path
   d="m 350.5,275 c 0,0 23.2,-27.7 51.9,-10 0.1,0 -24.8,26.1 -51.9,10 z"
   id="path90"
   style="fill:#fcb42a"
   inkscape:connector-curvature="0" />
	</g>
	<g
   id="g92">
		<path
   d="m 372.4,245.9 c 0,0 -24.9,-23.3 -6.8,-49.4 0,0 23.4,24.8 6.8,49.4 z"
   id="path94"
   style="fill:#fcb42a"
   inkscape:connector-curvature="0" />
		<path
   d="m 372.4,245.9 c 0,0 16.4,-29.9 46.2,-18.7 0.1,0 -18.2,28.7 -46.2,18.7 z"
   id="path96"
   style="fill:#fcb42a"
   inkscape:connector-curvature="0" />
	</g>
	<g
   id="g98">
		<path
   d="m 387.7,215.6 c 0,0 -28.3,-19.1 -14.4,-47.7 0,0 26.9,20.8 14.4,47.7 z"
   id="path100"
   style="fill:#fcb42a"
   inkscape:connector-curvature="0" />
		<path
   d="m 387.7,215.6 c 0,0 11.5,-32.1 42.7,-25.7 0.1,0 -13.5,31.2 -42.7,25.7 z"
   id="path102"
   style="fill:#fcb42a"
   inkscape:connector-curvature="0" />
	</g>
	<g
   id="g104">
		<path
   d="m 397.5,181.8 c 0,0 -29.7,-13 -21.6,-42.2 0,0 28.7,14.9 21.6,42.2 z"
   id="path106"
   style="fill:#fcb42a"
   inkscape:connector-curvature="0" />
		<path
   d="m 397.5,181.8 c 0,0 5.3,-32 35.6,-31.3 0,0 -7.4,31.4 -35.6,31.3 z"
   id="path108"
   style="fill:#fcb42a"
   inkscape:connector-curvature="0" />
	</g>
	<g
   id="g110">
		<path
   d="m 400.2,145.7 c 0,0 -31.8,-6 -30.5,-36.3 0,0 31.3,8.1 30.5,36.3 z"
   id="path112"
   style="fill:#fcb42a"
   inkscape:connector-curvature="0" />
		<path
   d="m 400.2,145.7 c 0,0 -2,-32.3 27.7,-38.5 0,0 -0.2,32.4 -27.7,38.5 z"
   id="path114"
   style="fill:#fcb42a"
   inkscape:connector-curvature="0" />
	</g>
	<g
   id="g116">
		<path
   d="m 396.7,111.9 c 0,0 -30.2,1 -35.1,-26.7 0,0 30,1 35.1,26.7 z"
   id="path118"
   style="fill:#fcb42a"
   inkscape:connector-curvature="0" />
		<path
   d="m 396.7,111.9 c 0,0 -8.4,-29 17.3,-40.6 0,0 6.4,29.4 -17.3,40.6 z"
   id="path120"
   style="fill:#fcb42a"
   inkscape:connector-curvature="0" />
	</g>
	<g
   id="g122">
		<path
   d="m 388.1,83.2 c 0,0 -29.7,5.2 -38.5,-21.6 0,-0.1 29.9,-3.3 38.5,21.6 z"
   id="path124"
   style="fill:#fcb42a"
   inkscape:connector-curvature="0" />
		<path
   d="m 388.1,83.2 c 0,0 -12.3,-27.6 11.5,-42.6 0,-0.1 10.5,28.2 -11.5,42.6 z"
   id="path126"
   style="fill:#fcb42a"
   inkscape:connector-curvature="0" />
	</g>
	<g
   id="g128">
		<path
   d="m 374.8,54.8 c 0,0 -28,11.3 -42.2,-13.1 0,0 28.6,-9.4 42.2,13.1 z"
   id="path130"
   style="fill:#fcb42a"
   inkscape:connector-curvature="0" />
		<path
   d="m 374.8,54.8 c 0,0 -17.8,-24.4 2.3,-44.1 0,0 16.2,25.4 -2.3,44.1 z"
   id="path132"
   style="fill:#fcb42a"
   inkscape:connector-curvature="0" />
	</g>
	<path
   d="m 363.1,37.8 c 0,0 -30,-3.2 -31,-31.4 -0.1,0 29.6,5.2 31,31.4 z"
   id="path134"
   style="fill:#fcb42a"
   inkscape:connector-curvature="0" />
	<g
   id="g136">
		<path
   d="m 174.1,327.4 c 0,0 2.3,-36.1 -30.7,-43.1 0,0.1 0,36.1 30.7,43.1 z"
   id="path138"
   style="fill:#fcb42a"
   inkscape:connector-curvature="0" />
		<path
   d="m 174.1,327.4 c 0,0 -34.4,-11.1 -49.3,19.2 0,0 35,8.8 49.3,-19.2 z"
   id="path140"
   style="fill:#fcb42a"
   inkscape:connector-curvature="0" />
		<g
   id="g142">
			<path
   d="m 140.5,315.6 c 0,0 8.7,-35.1 -22.6,-47.8 0,0 -6.3,35.5 22.6,47.8 z"
   id="path144"
   style="fill:#fcb42a"
   inkscape:connector-curvature="0" />
			<path
   d="m 140.5,315.6 c 0,0 -31.9,-17 -51.9,10.2 0,0 32.9,14.9 51.9,-10.2 z"
   id="path146"
   style="fill:#fcb42a"
   inkscape:connector-curvature="0" />
		</g>
		<g
   id="g148">
			<path
   d="m 109,298.1 c 0,0 16.1,-32.4 -11.7,-51.6 0.1,0 -13.9,33.3 11.7,51.6 z"
   id="path150"
   style="fill:#fcb42a"
   inkscape:connector-curvature="0" />
			<path
   d="m 109,298.1 c 0,0 -27.4,-23.6 -52.9,-1.4 0,0 28.9,21.7 52.9,1.4 z"
   id="path152"
   style="fill:#fcb42a"
   inkscape:connector-curvature="0" />
		</g>
		<g
   id="g154">
			<path
   d="m 82.8,275 c 0,0 21.2,-29.3 -3.1,-52.8 0.1,0 -19.1,30.5 3.1,52.8 z"
   id="path156"
   style="fill:#fcb42a"
   inkscape:connector-curvature="0" />
			<path
   d="m 82.8,275 c 0,0 -23.2,-27.7 -51.9,-10 0,0 24.9,26.1 51.9,10 z"
   id="path158"
   style="fill:#fcb42a"
   inkscape:connector-curvature="0" />
		</g>
		<g
   id="g160">
			<path
   d="m 60.9,245.9 c 0,0 24.9,-23.3 6.8,-49.4 0,0 -23.3,24.8 -6.8,49.4 z"
   id="path162"
   style="fill:#fcb42a"
   inkscape:connector-curvature="0" />
			<path
   d="m 60.9,245.9 c 0,0 -16.4,-29.9 -46.2,-18.7 0,0 18.3,28.7 46.2,18.7 z"
   id="path164"
   style="fill:#fcb42a"
   inkscape:connector-curvature="0" />
		</g>
		<g
   id="g166">
			<path
   d="m 45.6,215.6 c 0,0 28.3,-19.1 14.4,-47.7 0.1,0 -26.8,20.8 -14.4,47.7 z"
   id="path168"
   style="fill:#fcb42a"
   inkscape:connector-curvature="0" />
			<path
   d="m 45.6,215.6 c 0,0 -11.5,-32.1 -42.7,-25.7 0,0 13.6,31.2 42.7,25.7 z"
   id="path170"
   style="fill:#fcb42a"
   inkscape:connector-curvature="0" />
		</g>
		<g
   id="g172">
			<path
   d="m 35.8,181.8 c 0,0 29.7,-13 21.6,-42.2 0.1,0 -28.6,14.9 -21.6,42.2 z"
   id="path174"
   style="fill:#fcb42a"
   inkscape:connector-curvature="0" />
			<path
   d="m 35.8,181.8 c 0,0 -5.3,-32 -35.6,-31.3 0,0 7.4,31.4 35.6,31.3 z"
   id="path176"
   style="fill:#fcb42a"
   inkscape:connector-curvature="0" />
		</g>
		<g
   id="g178">
			<path
   d="m 33.2,145.7 c 0,0 31.8,-6 30.5,-36.3 0,0 -31.3,8.1 -30.5,36.3 z"
   id="path180"
   style="fill:#fcb42a"
   inkscape:connector-curvature="0" />
			<path
   d="m 33.2,145.7 c 0,0 2,-32.3 -27.7,-38.5 0,0 0.1,32.4 27.7,38.5 z"
   id="path182"
   style="fill:#fcb42a"
   inkscape:connector-curvature="0" />
		</g>
		<g
   id="g184">
			<path
   d="m 36.7,111.9 c 0,0 30.2,1 35.1,-26.7 0,0 -30.1,1 -35.1,26.7 z"
   id="path186"
   style="fill:#fcb42a"
   inkscape:connector-curvature="0" />
			<path
   d="m 36.7,111.9 c 0,0 8.4,-29 -17.3,-40.6 0,0 -6.5,29.4 17.3,40.6 z"
   id="path188"
   style="fill:#fcb42a"
   inkscape:connector-curvature="0" />
		</g>
		<g
   id="g190">
			<path
   d="m 45.3,83.2 c 0,0 29.7,5.2 38.5,-21.6 0,-0.1 -30,-3.3 -38.5,21.6 z"
   id="path192"
   style="fill:#fcb42a"
   inkscape:connector-curvature="0" />
			<path
   d="m 45.3,83.2 c 0,0 12.3,-27.6 -11.5,-42.6 -0.1,-0.1 -10.5,28.2 11.5,42.6 z"
   id="path194"
   style="fill:#fcb42a"
   inkscape:connector-curvature="0" />
		</g>
		<g
   id="g196">
			<path
   d="m 58.6,54.8 c 0,0 28,11.3 42.2,-13.1 -0.1,0 -28.6,-9.4 -42.2,13.1 z"
   id="path198"
   style="fill:#fcb42a"
   inkscape:connector-curvature="0" />
			<path
   d="m 58.6,54.8 c 0,0 17.8,-24.4 -2.3,-44.1 -0.1,0 -16.2,25.4 2.3,44.1 z"
   id="path200"
   style="fill:#fcb42a"
   inkscape:connector-curvature="0" />
		</g>
		<path
   d="m 70.3,37.8 c 0,0 30,-3.2 31,-31.4 0,0 -29.6,5.2 -31,31.4 z"
   id="path202"
   style="fill:#fcb42a"
   inkscape:connector-curvature="0" />
	</g>
</g><polygon
   points="402.1,252.9 432.1,210.7 345.2,210.7 345.2,252.9 345.2,295.2 432.1,295.2 "
   transform="translate(0,-46.6)"
   id="polygon204"
   style="fill:#77787b" /><polygon
   points="345.2,295.2 392.1,265.2 392.1,190.7 345.2,200.7 345.2,232.9 "
   transform="translate(0,-46.6)"
   id="polygon206"
   style="fill:#58595b" /><polygon
   points="32.2,252.9 2.2,210.7 89,210.7 89,252.9 89,295.2 2.2,295.2 "
   transform="translate(0,-46.6)"
   id="polygon208"
   style="fill:#77787b" /><polygon
   points="89,295.2 42.2,265.2 42.2,190.7 89,200.7 "
   transform="translate(0,-46.6)"
   id="polygon210"
   style="fill:#58595b" /><path
   d="m 41.5,134.1 c 0,0 72.8,33.6 175.6,33.6 102.8,0 175.6,-33.6 175.6,-33.6 v 85.5 c 0,0 -71.5,33.6 -175.6,33.6 C 113,253.2 41.5,219.6 41.5,219.6 v -85.5 z"
   id="path212"
   style="fill:#939598"
   inkscape:connector-curvature="0" /><path
   d="m 41.5,204.4 c 0,0 72.8,33.6 175.6,33.6 102.8,0 175.6,-33.6 175.6,-33.6 v 85.5 c 0,0 -71.5,33.6 -175.6,33.6 C 113,323.5 41.5,289.9 41.5,289.9 v -85.5 z"
   id="path214"
   style="fill:none"
   inkscape:connector-curvature="0" /><text
   x="170.85007"
   y="210.35007"
   transform="matrix(0.99041794,0.1381025,-0.1381025,0.99041794,0,0)"
   id="text216"
   style="font-size:11.99978256px"><tspan
     x="170.85007"
     y="210.35007"
     id="tspan218"
     style="font-size:31.99942017px;fill:#ffffff;font-family:HelveticaNeue-Bold">S</tspan><tspan
     x="192.24968"
     y="210.35007"
     rotate="-2.4000001"
     id="tspan220"
     style="font-size:31.99942017px;fill:#ffffff;font-family:HelveticaNeue-Bold">u</tspan><tspan
     x="211.74933"
     y="209.45009"
     rotate="-4.6999998"
     id="tspan222"
     style="font-size:31.99942017px;fill:#ffffff;font-family:HelveticaNeue-Bold">p</tspan><tspan
     x="231.74896"
     y="207.85011"
     rotate="-7.0999999"
     id="tspan224"
     style="font-size:31.99942017px;fill:#ffffff;font-family:HelveticaNeue-Bold">p</tspan><tspan
     x="251.64859"
     y="205.35016"
     rotate="-9.6000004"
     id="tspan226"
     style="font-size:31.99942017px;fill:#ffffff;font-family:HelveticaNeue-Bold">o</tspan><tspan
     x="271.34824"
     y="201.95023"
     rotate="-11.5"
     id="tspan228"
     style="font-size:31.99942017px;fill:#ffffff;font-family:HelveticaNeue-Bold">r</tspan><tspan
     x="283.94803"
     y="199.35027"
     rotate="-13"
     id="tspan230"
     style="font-size:31.99942017px;fill:#ffffff;font-family:HelveticaNeue-Bold">t</tspan><tspan
     x="295.34781"
     y="196.75032"
     rotate="-14.8"
     id="tspan232"
     style="font-size:31.99942017px;fill:#ffffff;font-family:HelveticaNeue-Bold">e</tspan><tspan
     x="313.44748"
     y="191.95041"
     rotate="-16.6"
     id="tspan234"
     style="font-size:31.99942017px;fill:#ffffff;font-family:HelveticaNeue-Bold">r</tspan></text>

<path
   d="m 41.5,171.4 c 0,0 72.8,33.6 175.6,33.6 102.8,0 175.6,-33.6 175.6,-33.6 v 85.5 c 0,0 -71.5,33.6 -175.6,33.6 C 113,290.5 41.5,256.9 41.5,256.9 v -85.5 z"
   id="path236"
   style="fill:none"
   inkscape:connector-curvature="0" /><text
   x="128.54878"
   y="159.08432"
   transform="matrix(0.96736405,0.25339058,-0.25339058,0.96736405,0,0)"
   id="text238"
   style="font-size:12.00044632px"><tspan
     x="128.54878"
     y="159.08432"
     id="tspan240"
     style="font-size:32.00119019px;fill:#ffffff;font-family:HelveticaNeue-Bold">P</tspan><tspan
     x="150.34959"
     y="158.98431"
     rotate="-2.0999999"
     id="tspan242"
     style="font-size:32.00119019px;fill:#ffffff;font-family:HelveticaNeue-Bold">r</tspan><tspan
     x="163.25008"
     y="158.5843"
     rotate="-4"
     id="tspan244"
     style="font-size:32.00119019px;fill:#ffffff;font-family:HelveticaNeue-Bold">e</tspan><tspan
     x="182.25078"
     y="157.38426"
     rotate="-6.8000002"
     id="tspan246"
     style="font-size:32.00119019px;fill:#ffffff;font-family:HelveticaNeue-Bold">m</tspan><tspan
     x="211.55186"
     y="153.68411"
     rotate="-9"
     id="tspan248"
     style="font-size:32.00119019px;fill:#ffffff;font-family:HelveticaNeue-Bold">i</tspan><tspan
     x="220.15219"
     y="152.38406"
     rotate="-10.7"
     id="tspan250"
     style="font-size:32.00119019px;fill:#ffffff;font-family:HelveticaNeue-Bold">u</tspan><tspan
     x="239.5529"
     y="148.88394"
     rotate="-13.6"
     id="tspan252"
     style="font-size:32.00119019px;fill:#ffffff;font-family:HelveticaNeue-Bold">m</tspan><tspan
     x="268.05396"
     y="141.68367"
     rotate="-16"
     id="tspan254"
     style="font-size:32.00119019px;fill:#ffffff;font-family:HelveticaNeue-Bold"> </tspan><tspan
     x="277.1543"
     y="139.18358"
     rotate="-18"
     id="tspan256"
     style="font-size:32.00119019px;fill:#ffffff;font-family:HelveticaNeue-Bold">H</tspan><tspan
     x="300.25516"
     y="131.6833"
     rotate="-20.6"
     id="tspan258"
     style="font-size:32.00119019px;fill:#ffffff;font-family:HelveticaNeue-Bold">o</tspan><tspan
     x="319.05585"
     y="124.58304"
     rotate="-22.799999"
     id="tspan260"
     style="font-size:32.00119019px;fill:#ffffff;font-family:HelveticaNeue-Bold">s</tspan><tspan
     x="335.25644"
     y="117.68279"
     rotate="-24.5"
     id="tspan262"
     style="font-size:32.00119019px;fill:#ffffff;font-family:HelveticaNeue-Bold">t</tspan><tspan
     x="345.75684"
     y="112.8826"
     rotate="-25.700001"
     id="tspan264"
     style="font-size:32.00119019px;fill:#ffffff;font-family:HelveticaNeue-Bold">i</tspan><tspan
     x="353.55713"
     y="109.18246"
     rotate="-27.299999"
     id="tspan266"
     style="font-size:32.00119019px;fill:#ffffff;font-family:HelveticaNeue-Bold">n</tspan><tspan
     x="370.95776"
     y="100.18213"
     rotate="-29.700001"
     id="tspan268"
     style="font-size:32.00119019px;fill:#ffffff;font-family:HelveticaNeue-Bold">g</tspan></text>

</g>
</svg>