<?xml version="1.0" encoding="UTF-8" standalone="no"?>
<!-- Created with Inkscape (http://www.inkscape.org/) -->

<svg
   xmlns:dc="http://purl.org/dc/elements/1.1/"
   xmlns:cc="http://creativecommons.org/ns#"
   xmlns:rdf="http://www.w3.org/1999/02/22-rdf-syntax-ns#"
   xmlns:svg="http://www.w3.org/2000/svg"
   xmlns="http://www.w3.org/2000/svg"
   version="1.1"
   width="123.059"
   height="126.147"
   viewBox="0 0 123.059 126.147"
   id="Layer_1"
   xml:space="preserve"><metadata
   id="metadata3143"><rdf:RDF><cc:Work
       rdf:about=""><dc:format>image/svg+xml</dc:format><dc:type
         rdf:resource="http://purl.org/dc/dcmitype/StillImage" /><dc:title></dc:title></cc:Work></rdf:RDF></metadata><defs
   id="defs3141" />
<g
   transform="translate(-61.47,-12.927001)"
   id="g3085">
	<g
   id="g3087">
		<g
   id="g3089">
			<path
   d="m 113.942,123.289 c 0,2.8 -1.214,5.066 -4.041,5.066 -2.829,0 -4.051,-2.267 -4.051,-5.066 v -9.573 h -5.161 v 9.573 c 0,5.534 3.593,10.018 9.184,10.018 5.585,0 9.232,-4.483 9.232,-10.018 v -9.584 h -5.173 l 0.01,9.584 z"
   id="path3091"
   style="fill:#2ba9e0" />
		</g>
		<g
   id="g3093">
			<rect
   width="5.145"
   height="24.945"
   x="165.74001"
   y="107.867"
   id="rect3095"
   style="fill:#2ba9e0" />
		</g>
		<g
   id="g3097">
			<polygon
   points="177.23,108.787 178.697,108.787 178.697,107.892 174.686,107.892 174.686,108.787 176.154,108.787 176.154,112.738 177.23,112.738 "
   id="polygon3099"
   style="fill:#2ba9e0" />
		</g>
		<g
   id="g3101">
			<polygon
   points="179.261,107.892 179.261,112.738 180.267,112.738 180.267,109.338 180.28,109.338 181.478,112.738 182.311,112.738 183.51,109.302 183.521,109.302 183.521,112.738 184.529,112.738 184.529,107.892 183.016,107.892 181.933,111.226 181.918,111.226 180.774,107.892 "
   id="polygon3103"
   style="fill:#2ba9e0" />
		</g>
		<g
   id="g3105">
			<path
   d="m 89.133,117.084 c -0.056,0.113 -0.058,0.179 -0.256,0.177 -0.161,-0.006 -0.181,-0.177 -0.181,-0.177 l -0.55,-3.34 h -4.609 v 19.055 h 5.167 v -10.313 c 0,-0.845 2.293,-4.884 6.733,-3.848 2.243,0.528 3.196,1.473 3.196,1.473 0,0 0,-3.68 0,-5.803 -0.831,-0.431 -1.401,-0.639 -2.15,-0.811 -4.434,-1.014 -7.233,3.35 -7.35,3.587 z"
   id="path3107"
   style="fill:#2ba9e0" />
		</g>
		<g
   id="g3109">
			<path
   d="m 131.122,113.345 c -5.624,0 -10.184,4.516 -10.184,10.087 0,0 0,13.789 0,15.642 h 5.18 v -6.856 l 0.003,-2.568 c 0,0 0.007,-0.203 0.195,-0.208 0.166,0 0.203,0.11 0.244,0.208 0.392,0.968 2.548,4.647 7.33,3.492 4.28,-1.195 7.418,-5.087 7.418,-9.709 0.001,-5.573 -4.558,-10.088 -10.186,-10.088 z m 0.006,15.192 c -2.85,0 -5.154,-2.284 -5.154,-5.105 0,-2.817 2.305,-5.105 5.154,-5.105 2.849,0 5.156,2.288 5.156,5.105 0,2.821 -2.307,5.105 -5.156,5.105 z"
   id="path3111"
   style="fill:#2ba9e0" />
		</g>
		<g
   id="g3113">
			<path
   d="m 153.465,113.345 c -5.627,0 -10.188,4.516 -10.188,10.087 0,4.622 3.139,8.514 7.422,9.709 4.783,1.155 6.938,-2.524 7.327,-3.492 0.043,-0.098 0.079,-0.208 0.246,-0.208 0.188,0.005 0.194,0.208 0.194,0.208 l 0.004,3.156 h 5.182 v -9.373 c 0,-5.572 -4.559,-10.087 -10.187,-10.087 z m -0.002,15.192 c -2.85,0 -5.158,-2.284 -5.158,-5.105 0,-2.817 2.309,-5.105 5.158,-5.105 2.846,0 5.155,2.288 5.155,5.105 0,2.821 -2.309,5.105 -5.155,5.105 z"
   id="path3115"
   style="fill:#2ba9e0" />
		</g>
		<g
   id="g3117">
			<path
   d="M 67.777,107.855 H 61.47 v 24.91 h 5.879 c 7.722,0 13.858,-1.493 13.858,-12.455 0.001,-11.066 -5.792,-12.455 -13.43,-12.455 z m 1.031,20.643 -2.134,-0.055 v -16.268 h 2.079 c 4.761,0 7.25,0.661 7.25,8.135 -0.001,7.793 -2.818,8.188 -7.195,8.188 z"
   id="path3119"
   style="fill:#2ba9e0" />
		</g>
	</g>
	<g
   id="g3121">
		<g
   id="g3123">
			<circle
   cx="112.831"
   cy="70.682999"
   r="11.732"
   id="circle3125"
   style="fill:#2ba9e0" />
		</g>
		<g
   id="g3127">
			<path
   d="m 127.418,56.713 c 3.477,3.63 5.616,8.548 5.616,13.969 0,6.866 -3.429,12.929 -8.663,16.579 9.675,-2.985 17.68,-10.258 21.264,-19.066 4.955,-12.185 0.342,-21.356 -7.404,-29.671 0.235,1.077 0.368,2.192 0.368,3.339 0,7.052 -4.729,12.996 -11.181,14.85 z"
   id="path3129"
   style="fill:#2ba9e0" />
		</g>
		<g
   id="g3131">
			<circle
   cx="123.144"
   cy="41.862999"
   r="8.974"
   id="circle3133"
   style="fill:#2ba9e0" />
		</g>
		<g
   id="g3135">
			<path
   d="m 97.376,83.693 c -2.964,-3.517 -4.75,-8.053 -4.75,-13.011 0,-10.342 7.773,-18.863 17.794,-20.054 -1.72,-2.492 -2.729,-5.511 -2.729,-8.765 0,-8.534 6.918,-15.453 15.455,-15.453 0.704,0 1.396,0.052 2.075,0.143 -5.056,-4.363 -10.1,-8.788 -14.082,-13.626 2.034,21.187 -19.296,13.488 -27.181,33.011 -5.291,13.1 -0.521,29.293 13.418,37.755 z"
   id="path3137"
   style="fill:#2ba9e0" />
		</g>
	</g>
</g>
</svg>