<?xml version="1.0" encoding="UTF-8" standalone="no"?>
<svg
   xmlns:dc="http://purl.org/dc/elements/1.1/"
   xmlns:cc="http://creativecommons.org/ns#"
   xmlns:rdf="http://www.w3.org/1999/02/22-rdf-syntax-ns#"
   xmlns:svg="http://www.w3.org/2000/svg"
   xmlns="http://www.w3.org/2000/svg"
   xml:space="preserve"
   enable-background="new 0 0 792 612"
   viewBox="0 0 405 126"
   height="126"
   width="405"
   y="0px"
   x="0px"
   id="Layer_1"
   version="1.1"><metadata
     id="metadata55"><rdf:RDF><cc:Work
         rdf:about=""><dc:format>image/svg+xml</dc:format><dc:type
           rdf:resource="http://purl.org/dc/dcmitype/StillImage" /><dc:title></dc:title></cc:Work></rdf:RDF></metadata><defs
     id="defs53" /><path
     style="fill:#ffffff"
     id="path3"
     d="M 107.546,18.452999 C 95.649,6.5559995 79.826,9.9945068e-4 63,9.9945068e-4 28.261,9.9945068e-4 0,28.263999 0,63.001999 0,97.737999 28.262,126 63,126 c 34.738,0 63,-28.262001 63,-62.998001 0,-16.828 -6.552,-32.649 -18.454,-44.549 z M 62.999,103.874 c -19.009,0 -34.473,-15.467001 -34.473,-34.480001 0,-16.15 10.779,-26.918 20.286,-36.419 6.338,-6.336 12.387,-12.376 14.187,-19.188 1.8,6.812 7.848,12.852 14.187,19.188 9.51,9.501 20.288,20.27 20.288,36.419 C 97.473,88.407999 82.011,103.874 62.999,103.874 Z" /><g
     transform="translate(-193.508,-241.067)"
     id="g5"><path
       style="fill:#ffffff"
       id="path7"
       d="m 458.742,267.996 -11.049,0 0.02,20.671 c 0,6.039 -2.59,10.926 -8.631,10.926 -6.043,0 -8.656,-4.887 -8.656,-10.926 l 0,-20.65 -11.02,0 -0.004,20.65 c 0,11.936 7.674,21.609 19.613,21.609 11.936,0 19.723,-9.673 19.723,-21.609 l 0.004,-20.671 z" /><rect
       style="fill:#ffffff"
       id="rect9"
       height="53.807999"
       width="10.992"
       y="255.401"
       x="558.35699" /><g
       id="g11"><path
         style="fill:#ffffff"
         id="path13"
         d="m 577.467,257.385 0,-1.934 8.566,0 0,1.934 -3.133,0 0,8.52 -2.299,0 0,-8.52 -3.134,0 z" /><path
         style="fill:#ffffff"
         id="path15"
         d="m 590.469,255.452 2.445,7.188 0.029,0 2.311,-7.188 3.238,0 0,10.453 -2.152,0 0,-7.407 -0.029,0 -2.562,7.407 -1.771,0 -2.562,-7.334 -0.029,0 0,7.334 -2.15,0 0,-10.453 3.232,0 z" /></g><path
       style="fill:#ffffff"
       id="path17"
       d="m 410.42,267.547 c -9.475,-2.188 -15.454,7.227 -15.702,7.731 -0.121,0.247 -0.127,0.393 -0.546,0.381 -0.347,-0.007 -0.387,-0.381 -0.387,-0.381 l -1.176,-7.201 -9.848,0 0,41.096 11.039,0 0,-22.243 c 0,-1.818 4.895,-10.533 14.381,-8.291 4.797,1.135 6.83,3.17 6.83,3.17 0,0 0,-7.932 0,-12.52 -1.775,-0.924 -2.991,-1.374 -4.591,-1.742 z" /><path
       style="fill:#ffffff"
       id="path19"
       d="m 473.721,322.709 0,-14.787 c 0.002,0 0.004,0.002 0.004,0.002 l 0.002,-5.537 c 0,0 0.018,-0.443 0.416,-0.448 0.357,-0.003 0.438,0.232 0.523,0.448 0.836,2.083 5.439,10.017 15.654,7.529 9.145,-2.576 15.852,-10.973 15.852,-20.944 0,-12.015 -9.742,-21.757 -21.76,-21.757 -12.018,0 -21.76,9.742 -21.76,21.757 0,0 0,29.743 0,33.737 l 11.069,0 z m 10.701,-44.748 c 6.084,0 11.016,4.932 11.016,11.011 0,6.083 -4.932,11.016 -11.016,11.016 -6.084,0 -11.014,-4.933 -11.014,-11.016 0,-6.079 4.93,-11.011 11.014,-11.011 z" /><path
       style="fill:#ffffff"
       id="path21"
       d="m 542.826,309.191 11.068,0 0,-20.219 c 0,-12.015 -9.74,-21.757 -21.76,-21.757 -12.018,0 -21.76,9.742 -21.76,21.757 0,9.971 6.707,18.368 15.852,20.944 10.217,2.488 14.816,-5.446 15.654,-7.529 0.088,-0.216 0.166,-0.451 0.523,-0.448 0.4,0.005 0.416,0.448 0.416,0.448 m 0.32,-13.415 c 0,6.083 -4.93,11.016 -11.012,11.016 -6.084,0 -11.016,-4.933 -11.016,-11.016 0,-6.079 4.932,-11.011 11.016,-11.011 6.082,0 11.012,4.932 11.012,11.011 z" /><g
       id="g23"><path
         style="fill:#ffffff"
         id="path25"
         d="m 348.183,309.105 -12.557,0 0,-53.726 13.473,0 c 16.314,0 28.688,2.992 28.688,26.863 0,23.64 -13.107,26.863 -29.604,26.863 z m 2.997,-44.413 -4.439,0 0,35.092 4.559,0.117 c 9.349,0 15.37,-0.851 15.37,-17.658 -0.001,-16.118 -5.316,-17.551 -15.49,-17.551 z" /></g></g><g
     transform="translate(-193.508,-241.067)"
     id="g27"><path
       style="fill:#ffffff"
       id="path29"
       d="m 349.202,331.663 7.938,29.988 -6.3,0 -1.386,-6.342 -7.98,0 -1.386,6.342 -6.3,0 7.938,-29.988 7.476,0 z m -0.798,18.691 -2.898,-13.482 -0.084,0 -2.898,13.482 5.88,0 z" /><path
       style="fill:#ffffff"
       id="path31"
       d="m 365.456,353.167 c 0,0.7 0.056,1.338 0.168,1.911 0.111,0.574 0.321,1.058 0.63,1.449 0.308,0.393 0.721,0.7 1.239,0.924 0.518,0.225 1.169,0.336 1.953,0.336 0.924,0 1.757,-0.301 2.499,-0.902 0.742,-0.603 1.113,-1.533 1.113,-2.793 0,-0.673 -0.091,-1.253 -0.273,-1.743 -0.182,-0.49 -0.483,-0.931 -0.903,-1.323 -0.42,-0.392 -0.973,-0.749 -1.659,-1.071 -0.686,-0.321 -1.533,-0.65 -2.541,-0.986 -1.344,-0.448 -2.506,-0.938 -3.486,-1.471 -0.98,-0.531 -1.799,-1.154 -2.457,-1.869 -0.658,-0.714 -1.141,-1.539 -1.449,-2.478 -0.309,-0.938 -0.462,-2.022 -0.462,-3.255 0,-2.968 0.825,-5.18 2.478,-6.636 1.652,-1.456 3.92,-2.185 6.804,-2.185 1.344,0 2.583,0.147 3.717,0.441 1.134,0.294 2.114,0.771 2.94,1.428 0.825,0.658 1.47,1.498 1.932,2.521 0.462,1.021 0.693,2.246 0.693,3.675 l 0,0.84 -5.796,0 c 0,-1.428 -0.252,-2.526 -0.756,-3.297 -0.504,-0.771 -1.344,-1.155 -2.52,-1.155 -0.672,0 -1.232,0.099 -1.68,0.294 -0.448,0.196 -0.805,0.455 -1.071,0.777 -0.267,0.322 -0.448,0.692 -0.546,1.112 -0.099,0.421 -0.147,0.854 -0.147,1.303 0,0.924 0.195,1.701 0.588,2.331 0.392,0.63 1.232,1.211 2.52,1.742 l 4.662,2.017 c 1.147,0.504 2.085,1.029 2.814,1.575 0.728,0.546 1.309,1.134 1.743,1.764 0.434,0.63 0.735,1.323 0.903,2.079 0.168,0.756 0.252,1.596 0.252,2.52 0,3.165 -0.917,5.468 -2.751,6.909 -1.834,1.442 -4.389,2.163 -7.665,2.163 -3.417,0 -5.859,-0.741 -7.329,-2.226 -1.47,-1.484 -2.205,-3.612 -2.205,-6.385 l 0,-1.218 6.048,0 0,0.882 z" /><path
       style="fill:#ffffff"
       id="path33"
       d="m 388.598,353.167 c 0,0.7 0.056,1.338 0.168,1.911 0.111,0.574 0.321,1.058 0.63,1.449 0.308,0.393 0.721,0.7 1.239,0.924 0.518,0.225 1.169,0.336 1.953,0.336 0.924,0 1.757,-0.301 2.499,-0.902 0.742,-0.603 1.113,-1.533 1.113,-2.793 0,-0.673 -0.091,-1.253 -0.273,-1.743 -0.182,-0.49 -0.483,-0.931 -0.903,-1.323 -0.42,-0.392 -0.973,-0.749 -1.659,-1.071 -0.686,-0.321 -1.533,-0.65 -2.541,-0.986 -1.344,-0.448 -2.506,-0.938 -3.486,-1.471 -0.98,-0.531 -1.799,-1.154 -2.457,-1.869 -0.658,-0.714 -1.141,-1.539 -1.449,-2.478 -0.309,-0.938 -0.462,-2.022 -0.462,-3.255 0,-2.968 0.825,-5.18 2.478,-6.636 1.652,-1.456 3.92,-2.185 6.804,-2.185 1.344,0 2.583,0.147 3.717,0.441 1.134,0.294 2.114,0.771 2.94,1.428 0.826,0.658 1.471,1.498 1.932,2.521 0.463,1.021 0.693,2.246 0.693,3.675 l 0,0.84 -5.796,0 c 0,-1.428 -0.252,-2.526 -0.756,-3.297 -0.504,-0.771 -1.344,-1.155 -2.52,-1.155 -0.672,0 -1.232,0.099 -1.68,0.294 -0.448,0.196 -0.805,0.455 -1.071,0.777 -0.267,0.322 -0.448,0.692 -0.546,1.112 -0.099,0.421 -0.147,0.854 -0.147,1.303 0,0.924 0.195,1.701 0.588,2.331 0.392,0.63 1.232,1.211 2.52,1.742 l 4.662,2.017 c 1.148,0.504 2.085,1.029 2.814,1.575 0.728,0.546 1.309,1.134 1.743,1.764 0.434,0.63 0.735,1.323 0.903,2.079 0.168,0.756 0.252,1.596 0.252,2.52 0,3.165 -0.918,5.468 -2.752,6.909 -1.834,1.442 -4.389,2.163 -7.665,2.163 -3.417,0 -5.859,-0.741 -7.329,-2.226 -1.47,-1.484 -2.205,-3.612 -2.205,-6.385 l 0,-1.218 6.048,0 0,0.882 z" /><path
       style="fill:#ffffff"
       id="path35"
       d="m 406.553,340.378 c 0.21,-1.917 0.672,-3.562 1.386,-4.935 0.714,-1.371 1.743,-2.442 3.087,-3.213 1.344,-0.77 3.15,-1.155 5.418,-1.155 2.268,0 4.074,0.386 5.418,1.155 1.344,0.771 2.373,1.842 3.088,3.213 0.713,1.372 1.176,3.018 1.385,4.935 0.211,1.919 0.315,4.012 0.315,6.279 0,2.296 -0.104,4.396 -0.315,6.3 -0.209,1.904 -0.672,3.543 -1.385,4.914 -0.715,1.372 -1.744,2.423 -3.088,3.15 -1.344,0.727 -3.15,1.092 -5.418,1.092 -2.268,0 -4.074,-0.364 -5.418,-1.092 -1.344,-0.728 -2.373,-1.778 -3.087,-3.15 -0.714,-1.371 -1.176,-3.01 -1.386,-4.914 -0.21,-1.903 -0.314,-4.004 -0.314,-6.3 -10e-4,-2.267 0.104,-4.36 0.314,-6.279 z m 5.88,11.425 c 0.098,1.414 0.294,2.562 0.588,3.443 0.294,0.881 0.714,1.526 1.261,1.933 0.545,0.406 1.266,0.608 2.162,0.608 0.896,0 1.617,-0.202 2.163,-0.608 0.546,-0.406 0.966,-1.051 1.261,-1.933 0.293,-0.882 0.488,-2.029 0.588,-3.443 0.098,-1.414 0.146,-3.129 0.146,-5.146 0,-2.016 -0.049,-3.724 -0.146,-5.124 -0.1,-1.399 -0.295,-2.548 -0.588,-3.443 -0.295,-0.896 -0.715,-1.547 -1.261,-1.953 -0.546,-0.406 -1.267,-0.609 -2.163,-0.609 -0.896,0 -1.617,0.203 -2.162,0.609 -0.547,0.406 -0.967,1.057 -1.261,1.953 -0.294,0.896 -0.49,2.044 -0.588,3.443 -0.099,1.4 -0.147,3.108 -0.147,5.124 -10e-4,2.017 0.048,3.732 0.147,5.146 z" /><path
       style="fill:#ffffff"
       id="path37"
       d="m 443.596,337.019 c -0.518,-0.994 -1.463,-1.491 -2.834,-1.491 -0.756,0 -1.38,0.203 -1.869,0.609 -0.49,0.406 -0.875,1.064 -1.155,1.974 -0.28,0.91 -0.477,2.1 -0.588,3.57 -0.112,1.47 -0.168,3.27 -0.168,5.396 0,2.269 0.077,4.103 0.231,5.502 0.152,1.4 0.391,2.485 0.713,3.255 0.322,0.771 0.729,1.289 1.219,1.555 0.489,0.267 1.057,0.398 1.701,0.398 0.531,0 1.029,-0.09 1.49,-0.272 0.463,-0.182 0.861,-0.546 1.197,-1.092 0.336,-0.547 0.602,-1.316 0.799,-2.311 0.195,-0.993 0.293,-2.303 0.293,-3.927 l 6.049,0 c 0,1.624 -0.127,3.164 -0.379,4.62 -0.252,1.456 -0.721,2.729 -1.406,3.821 -0.687,1.093 -1.652,1.947 -2.898,2.562 -1.246,0.615 -2.863,0.924 -4.852,0.924 -2.268,0 -4.073,-0.364 -5.418,-1.092 -1.344,-0.728 -2.373,-1.778 -3.086,-3.15 -0.715,-1.371 -1.176,-3.01 -1.387,-4.914 -0.209,-1.903 -0.314,-4.004 -0.314,-6.3 0,-2.268 0.105,-4.36 0.314,-6.279 0.211,-1.917 0.672,-3.562 1.387,-4.935 0.713,-1.371 1.742,-2.442 3.086,-3.213 1.345,-0.77 3.15,-1.155 5.418,-1.155 2.156,0 3.857,0.351 5.104,1.05 1.246,0.7 2.177,1.59 2.793,2.667 0.615,1.078 1.001,2.241 1.155,3.486 0.153,1.246 0.231,2.415 0.231,3.507 l -6.049,0 c 0,-2.182 -0.259,-3.771 -0.777,-4.765 z" /><path
       style="fill:#ffffff"
       id="path39"
       d="m 455.756,331.663 6.047,0 0,29.988 -6.047,0 0,-29.988 z" /><path
       style="fill:#ffffff"
       id="path41"
       d="m 480.955,331.663 7.938,29.988 -6.3,0 -1.386,-6.342 -7.98,0 -1.386,6.342 -6.3,0 7.938,-29.988 7.476,0 z m -0.798,18.691 -2.898,-13.482 -0.084,0 -2.897,13.482 5.879,0 z" /><path
       style="fill:#ffffff"
       id="path43"
       d="m 507.584,336.619 -6.553,0 0,25.032 -6.047,0 0,-25.032 -6.553,0 0,-4.956 19.152,0 0,4.956 z" /><path
       style="fill:#ffffff"
       id="path45"
       d="m 511.824,331.663 6.049,0 0,29.988 -6.049,0 0,-29.988 z" /><path
       style="fill:#ffffff"
       id="path47"
       d="m 523.396,340.378 c 0.209,-1.917 0.672,-3.562 1.385,-4.935 0.715,-1.371 1.744,-2.442 3.088,-3.213 1.344,-0.77 3.15,-1.155 5.418,-1.155 2.268,0 4.074,0.386 5.418,1.155 1.344,0.771 2.373,1.842 3.086,3.213 0.715,1.372 1.178,3.018 1.387,4.935 0.211,1.919 0.314,4.012 0.314,6.279 0,2.296 -0.104,4.396 -0.314,6.3 -0.209,1.904 -0.672,3.543 -1.387,4.914 -0.713,1.372 -1.742,2.423 -3.086,3.15 -1.344,0.727 -3.15,1.092 -5.418,1.092 -2.268,0 -4.074,-0.364 -5.418,-1.092 -1.344,-0.728 -2.373,-1.778 -3.088,-3.15 -0.713,-1.371 -1.176,-3.01 -1.385,-4.914 -0.211,-1.903 -0.316,-4.004 -0.316,-6.3 0,-2.267 0.106,-4.36 0.316,-6.279 z m 5.879,11.425 c 0.098,1.414 0.295,2.562 0.588,3.443 0.295,0.882 0.715,1.526 1.26,1.933 0.547,0.406 1.268,0.608 2.164,0.608 0.896,0 1.617,-0.202 2.162,-0.608 0.547,-0.406 0.967,-1.051 1.26,-1.933 0.295,-0.882 0.49,-2.029 0.588,-3.443 0.1,-1.414 0.148,-3.129 0.148,-5.146 0,-2.016 -0.049,-3.724 -0.148,-5.124 -0.098,-1.399 -0.293,-2.548 -0.588,-3.443 -0.293,-0.896 -0.713,-1.547 -1.26,-1.953 -0.545,-0.406 -1.266,-0.609 -2.162,-0.609 -0.896,0 -1.617,0.203 -2.164,0.609 -0.545,0.406 -0.965,1.057 -1.26,1.953 -0.293,0.896 -0.49,2.044 -0.588,3.443 -0.098,1.4 -0.146,3.108 -0.146,5.124 0,2.017 0.049,3.732 0.146,5.146 z" /><path
       style="fill:#ffffff"
       id="path49"
       d="m 562.688,352.201 0.084,0 0,-20.538 5.543,0 0,29.988 -6.887,0 -7.393,-21 -0.084,0 0,21 -5.545,0 0,-29.988 6.973,0 7.309,20.538 z" /></g></svg>