<?xml version="1.0" encoding="UTF-8" standalone="no"?>
<svg
   xmlns:dc="http://purl.org/dc/elements/1.1/"
   xmlns:cc="http://creativecommons.org/ns#"
   xmlns:rdf="http://www.w3.org/1999/02/22-rdf-syntax-ns#"
   xmlns:svg="http://www.w3.org/2000/svg"
   xmlns="http://www.w3.org/2000/svg"
   width="22.610355mm"
   height="25.777401mm"
   viewBox="0 0 80.115432 91.337247"
   id="svg4167"
   version="1.1">
  <defs
     id="defs4169" />
  <metadata
     id="metadata4172">
    <rdf:RDF>
      <cc:Work
         rdf:about="">
        <dc:format>image/svg+xml</dc:format>
        <dc:type
           rdf:resource="http://purl.org/dc/dcmitype/StillImage" />
        <dc:title></dc:title>
      </cc:Work>
    </rdf:RDF>
  </metadata>
  <g
     style="fill:none;stroke-width:8;stroke-miterlimit:4;stroke-dasharray:none;stroke:#ff7b3a;stroke-opacity:1;stroke-dashoffset:0"
     id="layer1"
     transform="translate(-214.228,-109.55072)">
    <path
       id="path4206"
       d="m 255.57537,113.87618 -36.84737,10.57279 0,30.97814 c 0,14.98689 30.61298,40.99562 35.51197,40.96067 l 0.0915,0 c 5.00951,0.0349 35.51196,-25.97378 35.51196,-40.96067 l 0,-30.97814 c -12.25476,-3.52427 -24.50952,-7.04851 -36.76428,-10.57279"
       style="fill:none;fill-rule:evenodd;stroke:#ff7b3a;stroke-width:8;stroke-linecap:butt;stroke-linejoin:miter;stroke-miterlimit:4;stroke-dasharray:none;stroke-opacity:1;fill-opacity:1;stroke-dashoffset:0" />
  </g>
  <g
     id="text4135"
     style="fill:#ff7b3a;fill-opacity:1;stroke:none;stroke-width:1px;stroke-linecap:butt;stroke-linejoin:miter;stroke-opacity:1">
    <path
       id="path4202"
       style=""
       d="m 43.957714,33.658331 q 0,4.98 -0.36,9.12 -0.36,4.14 -0.9,8.34 l -5.16,0 q -0.6,-4.2 -0.96,-8.34 -0.36,-4.2 -0.36,-9.12 l 0,-11.16 7.74,0 0,11.16 z m 0.9,26.46 q 0,2.1 -1.38,3.42 -1.38,1.32 -3.42,1.32 -1.98,0 -3.42,-1.32 -1.38,-1.32 -1.38,-3.42 0,-2.1 1.38,-3.42 1.44,-1.38 3.42,-1.38 2.04,0 3.42,1.38 1.38,1.32 1.38,3.42 z" />
  </g>
</svg>
